# xmcd
#
# Track frame offsets: 
#        150
#        18066
#        37313
#        60421
#        77587
#        90932
#        110768
#        129666
#        143897
#        166845
#
# Disc length: 2631 seconds
#
# Revision: 0
# Processed by: cddbd v1.5.2PL0 Copyright (c) Steve Scherf et al.
# Submitted via: ExactAudioCopyFreeDBPlugin 1.0
#
DISCID=780a450a
DTITLE=Enchantment - Soft Lights, Sweet Music
DYEAR=1980
DGENRE=Funk
TTITLE0=Settin' It Out
TTITLE1=I'm Who You Found (Not Who You Lost)
TTITLE2=I Believe In You
TTITLE3=Moment Of Weakness
TTITLE4=I Can't Fake It
TTITLE5=Soft Lights, Sweet Music
TTITLE6=Are You Ready For Love
TTITLE7=I Can't Be The One
TTITLE8=You And Me
TTITLE9=Settin' It Out (12" Version)
EXTD=
EXTT0=
EXTT1=
EXTT2=
EXTT3=
EXTT4=
EXTT5=
EXTT6=
EXTT7=
EXTT8=
EXTT9=
PLAYORDER=
